<svg width="22" height="22" viewBox="0 0 22 22" fill="none" xmlns="http://www.w3.org/2000/svg">
<g id="Group 57">
<path id="Vector" d="M5.35463 5.37499H21L17.7318 14.4225C17.6711 14.5916 17.5601 14.7377 17.4139 14.8411C17.2677 14.9444 17.0935 14.9999 16.9148 15H6.98871C6.77517 15.0016 6.56854 14.9239 6.40823 14.7818C6.24791 14.6398 6.14515 14.4434 6.11952 14.23L4.47675 1H1" stroke="black" stroke-width="1.5" stroke-linecap="round" stroke-linejoin="round"/>
<path id="Vector_2" d="M16.5 21C17.3284 21 18 20.3284 18 19.5C18 18.6716 17.3284 18 16.5 18C15.6716 18 15 18.6716 15 19.5C15 20.3284 15.6716 21 16.5 21Z" stroke="black" stroke-width="1.5" stroke-linecap="round" stroke-linejoin="round"/>
<path id="Vector_3" d="M7.00001 21C8.10459 21 9 20.3284 9 19.5C9 18.6716 8.10459 18 7.00001 18C5.89544 18 5 18.6716 5 19.5C5 20.3284 5.89544 21 7.00001 21Z" stroke="black" stroke-width="1.5" stroke-linecap="round" stroke-linejoin="round"/>
</g>
</svg>
