<svg width="20" height="20" viewBox="0 0 20 20" fill="none" xmlns="http://www.w3.org/2000/svg">
<path id="Vector" d="M19.7049 14.0125L15.4317 9.74261C15.0382 9.34944 14.4008 9.34944 14.0073 9.74261L9.73463 14.0125C9.34115 14.4051 9.34115 15.0426 9.73463 15.4352L14.0073 19.7051C14.4008 20.0983 15.0382 20.0983 15.4317 19.7051L19.7049 15.4352C20.0984 15.0426 20.0984 14.4051 19.7049 14.0125ZM14.7275 18.9293L10.511 14.7161L14.7275 10.5028L18.9441 14.7161L14.7275 18.9293ZM7.22483 0H1.11151C0.497402 0 0 0.497015 0 1.11065V7.21921C0 7.83229 0.497402 8.32986 1.11151 8.32986H7.22483C7.83839 8.32986 8.33634 7.83229 8.33634 7.21921V1.11065C8.33634 0.497015 7.83839 0 7.22483 0ZM7.22483 7.21921H1.11151V1.11065H7.22483V7.21921ZM7.22483 9.99583H1.11151C0.497402 9.99583 0 10.4929 0 11.1065V17.215C0 17.8281 0.497402 18.3257 1.11151 18.3257H7.22483C7.83839 18.3257 8.33634 17.8281 8.33634 17.215V11.1065C8.33634 10.4929 7.83839 9.99583 7.22483 9.99583ZM7.22483 17.215H1.11151V11.1065H7.22483V17.215ZM11.1151 8.32986H17.2284C17.842 8.32986 18.34 7.83229 18.34 7.21921V1.11065C18.34 0.497015 17.842 0 17.2284 0H11.1151C10.501 0 10.0036 0.497015 10.0036 1.11065V7.21921C10.0036 7.83229 10.501 8.32986 11.1151 8.32986ZM11.1151 1.11065H17.2284V7.21921H11.1151V1.11065Z" fill="black"/>
</svg>
