<svg width="18" height="20" viewBox="0 0 18 20" fill="none" xmlns="http://www.w3.org/2000/svg">
<g id="Group 58">
<path id="Vector" d="M8.99989 9.49288C9.92596 9.49288 10.8312 9.21451 11.6012 8.69296C12.3712 8.17142 12.9714 7.43012 13.3257 6.56282C13.6801 5.69553 13.7729 4.74118 13.5922 3.82046C13.4115 2.89974 12.9656 2.054 12.3108 1.3902C11.6559 0.7264 10.8216 0.274346 9.91336 0.0912036C9.00509 -0.0919388 8.06364 0.00205655 7.20807 0.361303C6.35249 0.72055 5.62122 1.32891 5.10673 2.10946C4.59224 2.89001 4.31763 3.80768 4.31763 4.74644C4.31763 6.00528 4.81094 7.21255 5.68903 8.10268C6.56713 8.99281 7.75808 9.49288 8.99989 9.49288ZM8.99989 1.35613C9.66137 1.35613 10.308 1.55497 10.858 1.9275C11.408 2.30003 11.8366 2.82953 12.0898 3.44902C12.3429 4.06852 12.4092 4.7502 12.2801 5.40786C12.1511 6.06552 11.8325 6.66961 11.3648 7.14375C10.8971 7.6179 10.3011 7.94079 9.65237 8.07161C9.0036 8.20243 8.33114 8.13529 7.72002 7.87868C7.10889 7.62208 6.58656 7.18753 6.21906 6.63C5.85157 6.07246 5.65542 5.41698 5.65542 4.74644C5.65542 3.84727 6.00778 2.98493 6.63499 2.34913C7.2622 1.71332 8.11288 1.35613 8.99989 1.35613Z" fill="black"/>
<path id="Vector_2" d="M17.3412 14.1485C16.2685 12.9992 14.9758 12.0837 13.5422 11.4581C12.1086 10.8325 10.5642 10.5098 9.00342 10.5098C7.44262 10.5098 5.89821 10.8325 4.46461 11.4581C3.03101 12.0837 1.73835 12.9992 0.665648 14.1485C0.433082 14.4003 0.303917 14.7325 0.304445 15.0775V18.6441C0.304445 19.0037 0.44539 19.3487 0.696275 19.603C0.947159 19.8573 1.28743 20.0002 1.64223 20.0002H16.3579C16.7127 20.0002 17.053 19.8573 17.3039 19.603C17.5548 19.3487 17.6957 19.0037 17.6957 18.6441V15.0775C17.6981 14.7334 17.5713 14.4014 17.3412 14.1485ZM16.3579 18.6441H1.64223V15.0707C2.59021 14.0588 3.73139 13.253 4.99631 12.7024C6.26124 12.1518 7.62346 11.8678 9.00008 11.8678C10.3767 11.8678 11.7389 12.1518 13.0038 12.7024C14.2688 13.253 15.4099 14.0588 16.3579 15.0707V18.6441Z" fill="black"/>
</g>
</svg>
