<svg width="20" height="20" viewBox="0 0 20 20" fill="none" xmlns="http://www.w3.org/2000/svg">
<path id="Vector" d="M12.4999 19.9998H16.2498C16.5948 19.9998 16.8748 19.7198 16.8748 19.3748V10.6248H19.3748C19.6276 10.6248 19.8554 10.4726 19.9523 10.2389C20.0492 10.0055 19.9958 9.73672 19.8167 9.55797L10.4418 0.183045C10.1977 -0.0610151 9.80209 -0.0610151 9.55803 0.183045L0.183103 9.55797C0.00435436 9.73672 -0.0490827 10.0055 0.047479 10.2389C0.144353 10.4726 0.372164 10.6248 0.624974 10.6248H3.12495V19.3748C3.12495 19.7198 3.40495 19.9998 3.74995 19.9998H7.49992C7.84491 19.9998 8.12491 19.7198 8.12491 19.3748V14.9998H11.8749V19.3748C11.8749 19.7198 12.1549 19.9998 12.4999 19.9998ZM7.49992 13.7498C7.15492 13.7498 6.87492 14.0298 6.87492 14.3748V18.7498H4.37494V9.99984C4.37494 9.65484 4.09495 9.37484 3.74995 9.37484H2.13371L9.9999 1.50897L17.8661 9.37484H16.2498C15.9048 9.37484 15.6249 9.65484 15.6249 9.99984V18.7498H13.1249V14.3748C13.1249 14.0298 12.8449 13.7498 12.4999 13.7498H7.49992Z" fill="black"/>
</svg>
